<?xml version="1.0" encoding="UTF-8"?>
<!-- Avro Linux — Preferences icon. SPDX-License-Identifier: MPL-2.0 -->
<svg xmlns="http://www.w3.org/2000/svg" width="256" height="256" viewBox="0 0 256 256">
  <defs>
    <linearGradient id="bg" x1="0" y1="0" x2="1" y2="1">
      <stop offset="0" stop-color="#94a3b8"/>
      <stop offset="1" stop-color="#334155"/>
    </linearGradient>
    <linearGradient id="gloss" x1="0" y1="0" x2="0" y2="1">
      <stop offset="0" stop-color="#ffffff" stop-opacity="0.28"/>
      <stop offset="1" stop-color="#ffffff" stop-opacity="0"/>
    </linearGradient>
  </defs>
  <rect x="12" y="12" width="232" height="232" rx="58" fill="url(#bg)"/>
  <rect x="12" y="12" width="232" height="116" rx="58" fill="url(#gloss)"/>
  <rect x="58" y="76" width="140" height="10" rx="5" fill="#ffffff" opacity="0.5"/>
  <rect x="58" y="123" width="140" height="10" rx="5" fill="#ffffff" opacity="0.5"/>
  <rect x="58" y="170" width="140" height="10" rx="5" fill="#ffffff" opacity="0.5"/>
  <rect x="58" y="76" width="52" height="10" rx="5" fill="#ffffff"/>
  <rect x="58" y="123" width="94" height="10" rx="5" fill="#ffffff"/>
  <rect x="58" y="170" width="68" height="10" rx="5" fill="#ffffff"/>
  <circle cx="110" cy="81" r="20" fill="#ffffff"/><circle cx="110" cy="81" r="8" fill="#475569"/>
  <circle cx="152" cy="128" r="20" fill="#ffffff"/><circle cx="152" cy="128" r="8" fill="#475569"/>
  <circle cx="126" cy="175" r="20" fill="#ffffff"/><circle cx="126" cy="175" r="8" fill="#475569"/>
</svg>
